name C:\Users\u0150099\Documents\master_thesis\3dpredictsim\Results\debug\Fal_s1_mtj_sc_cspx10_oy_o1x25_TrackAnkleQSubtQ_MTPm_k1_d01_MTJm_nl_MG_exp_table_d01_PF_Natali2010_ls146_FDB_ig21.mot
datacolumns 130
datarows 4
range 0.00000000 0.03203825
endheader
time	pelvis_tilt	pelvis_list	pelvis_rotation	pelvis_tx	pelvis_ty	pelvis_tz	hip_flexion_l	hip_adduction_l	hip_rotation_l	hip_flexion_r	hip_adduction_r	hip_rotation_r	knee_angle_l	knee_angle_r	ankle_angle_l	ankle_angle_r	subtalar_angle_l	subtalar_angle_r	mtj_angle_l	mtj_angle_r	mtp_angle_l	mtp_angle_r	lumbar_extension	lumbar_bending	lumbar_rotation	arm_flex_l	arm_add_l	arm_rot_l	arm_flex_r	arm_add_r	arm_rot_r	elbow_flex_l	elbow_flex_r	pro_sup_l	pro_sup_r	glut_med1_l/activation	glut_med2_l/activation	glut_med3_l/activation	glut_min1_l/activation	glut_min2_l/activation	glut_min3_l/activation	semimem_l/activation	semiten_l/activation	bifemlh_l/activation	bifemsh_l/activation	sar_l/activation	add_long_l/activation	add_brev_l/activation	add_mag1_l/activation	add_mag2_l/activation	add_mag3_l/activation	tfl_l/activation	pect_l/activation	grac_l/activation	glut_max1_l/activation	glut_max2_l/activation	glut_max3_l/activation	iliacus_l/activation	psoas_l/activation	quad_fem_l/activation	gem_l/activation	peri_l/activation	rect_fem_l/activation	vas_med_l/activation	vas_int_l/activation	vas_lat_l/activation	med_gas_l/activation	lat_gas_l/activation	soleus_l/activation	tib_post_l/activation	flex_dig_l/activation	flex_hal_l/activation	tib_ant_l/activation	per_brev_l/activation	per_long_l/activation	per_tert_l/activation	ext_dig_l/activation	ext_hal_l/activation	FDB_l/activation	ercspn_l/activation	intobl_l/activation	extobl_l/activation	glut_med1_r/activation	glut_med2_r/activation	glut_med3_r/activation	glut_min1_r/activation	glut_min2_r/activation	glut_min3_r/activation	semimem_r/activation	semiten_r/activation	bifemlh_r/activation	bifemsh_r/activation	sar_r/activation	add_long_r/activation	add_brev_r/activation	add_mag1_r/activation	add_mag2_r/activation	add_mag3_r/activation	tfl_r/activation	pect_r/activation	grac_r/activation	glut_max1_r/activation	glut_max2_r/activation	glut_max3_r/activation	iliacus_r/activation	psoas_r/activation	quad_fem_r/activation	gem_r/activation	peri_r/activation	rect_fem_r/activation	vas_med_r/activation	vas_int_r/activation	vas_lat_r/activation	med_gas_r/activation	lat_gas_r/activation	soleus_r/activation	tib_post_r/activation	flex_dig_r/activation	flex_hal_r/activation	tib_ant_r/activation	per_brev_r/activation	per_long_r/activation	per_tert_r/activation	ext_dig_r/activation	ext_hal_r/activation	FDB_r/activation	ercspn_r/activation	intobl_r/activation	extobl_r/activation	
          0.00000000	         -2.92247211	         -1.02738352	          5.39030997	          0.00000000	          0.90989423	         -0.00736714	        -13.12384934	          1.94395871	          6.02448509	         27.15634839	          1.99386727	         -3.15393530	        -19.50821253	        -10.57169782	          1.78633226	          1.42669896	          3.15739749	         -1.48206696	         -3.60107056	         -0.42224499	         30.45704262	          4.05628579	         -3.60408790	          0.33573410	         -1.23965174	          3.60601334	        -14.24045450	         19.36951332	         -4.41535266	        -13.45142353	          9.19880075	         40.07716976	         20.77270452	         86.51662706	         86.51662706	          0.22420509	          0.05086068	          0.05000006	          0.40254862	          0.19096023	          0.06006088	          0.05000146	          0.05000017	          0.05000015	          0.05000030	          0.06938208	          0.05000020	          0.05000014	          0.05000029	          0.05000092	          0.05000054	          0.51254031	          0.05000072	          0.05000027	          0.05000171	          0.05000087	          0.05000054	          0.42553433	          0.72476242	          0.05000006	          0.05000020	          0.05000007	          0.51515018	          0.23352472	          0.24612307	          0.20054053	          0.33668888	          0.53628874	          0.18874673	          0.58903959	          0.42370712	          0.66095426	          0.05000000	          0.05771347	          0.37908502	          0.05000009	          0.05000002	          0.08373446	          0.70751493	          0.05000001	          0.05000001	          0.05000010	          0.06938294	          0.05000019	          0.05889862	          0.05000015	          0.05000020	          0.05000077	          0.32612827	          0.18930825	          0.35058786	          0.16993536	          0.05889914	          0.10100891	          0.10260109	          0.09557664	          0.11852169	          0.17039234	          0.05000066	          0.06954531	          0.25827523	          0.05888721	          0.05889964	          0.14757151	          0.05626264	          0.05555482	          0.10845957	          0.05000045	          0.05000016	          0.05000002	          0.05000006	          0.05000005	          0.05000005	          0.09699041	          0.07125816	          0.05005617	          0.15184206	          0.10300656	          0.05694154	          0.36059135	          0.35477258	          0.16973618	          0.27018401	          0.43156824	          0.05000102	          0.09039493	          0.05131473	          0.11070609	          0.11292787	
          0.01067942	         -2.92843373	         -1.17386543	          5.61567964	          0.01740786	          0.90874695	         -0.00699863	        -13.73795290	          1.51082033	          5.96033780	         27.05243022	          2.43932775	         -3.07802951	        -19.85302287	        -11.51231796	          0.50428763	          1.13904418	          3.61656276	         -1.89274244	         -5.06393547	         -0.20017473	         33.90850175	          3.23244482	         -3.40386220	          0.58069454	         -1.34645141	          3.20958562	        -14.16585689	         19.30008788	         -5.27750548	        -13.45088374	          8.84410599	         41.26867730	         20.30507243	         86.51662706	         86.51662706	          0.19032852	          0.05000004	          0.05000002	          0.34172499	          0.16210686	          0.05098596	          0.05000621	          0.05000033	          0.05000020	          0.05000088	          0.05889901	          0.11678293	          0.07494844	          0.05000063	          0.05000214	          0.05000372	          0.47028570	          0.05892068	          0.05000034	          0.05000056	          0.05000035	          0.05000034	          0.36123758	          0.65224858	          0.05000002	          0.05000011	          0.05000010	          0.46852302	          0.20297966	          0.21839561	          0.21839508	          0.28581635	          0.45525739	          0.16022774	          0.50392482	          0.35968688	          0.56108715	          0.05000000	          0.05000006	          0.32180690	          0.05000007	          0.05000001	          0.07108252	          0.60061189	          0.05000000	          0.05070650	          0.09562197	          0.05889951	          0.05889942	          0.05000007	          0.05889957	          0.05889954	          0.05042963	          0.27685142	          0.16070445	          0.29761525	          0.14425873	          0.05000033	          0.16290636	          0.24732730	          0.08113596	          0.13939350	          0.17740018	          0.05000010	          0.08106374	          0.21925108	          0.05000027	          0.05000051	          0.21880700	          0.06940456	          0.06068448	          0.28955520	          0.18525131	          0.07499845	          0.05000001	          0.05000003	          0.05000003	          0.05000002	          0.08233550	          0.06049132	          0.05000000	          0.16893169	          0.11420523	          0.06938232	          0.36836059	          0.30116773	          0.14408985	          0.31240438	          0.45848541	          0.06938248	          0.09250181	          0.05000001	          0.09397879	          0.09586487	
          0.02135884	         -2.93017647	         -1.33396600	          5.81560088	          0.03510870	          0.90753421	         -0.00658022	        -14.24793739	          1.06659074	          5.87242686	         26.96510662	          2.86985670	         -2.99332288	        -20.32945602	        -13.08921340	         -1.00105195	          0.71431387	          4.06586988	         -2.35762704	         -6.61657520	         -0.03556124	         37.63810727	          2.43004515	         -3.19310968	          0.84070137	         -1.44708515	          2.73805542	        -14.09878831	         19.19148214	         -6.15592027	        -13.46695705	          8.68059607	         42.47022639	         19.84702489	         86.51662706	         86.51662706	          0.16157056	          0.05889952	          0.05889954	          0.29009156	          0.13761313	          0.05889960	          0.05000120	          0.05000013	          0.05000038	          0.05000002	          0.05000017	          0.20728065	          0.14716131	          0.05890056	          0.05890141	          0.08961783	          0.42476124	          0.05001865	          0.05000114	          0.05889973	          0.05889980	          0.05889996	          0.30665584	          0.56535950	          0.05889961	          0.05889973	          0.05889951	          0.39773084	          0.18539748	          0.18539759	          0.18539699	          0.24263048	          0.38646957	          0.13601788	          0.42778352	          0.30533948	          0.47630889	          0.05000000	          0.05000002	          0.28512180	          0.05000001	          0.05000000	          0.06034225	          0.50986151	          0.05917684	          0.06938306	          0.08117383	          0.05000002	          0.05000004	          0.09092446	          0.05000007	          0.05000007	          0.05000007	          0.23502012	          0.13642257	          0.25264662	          0.12246174	          0.08173211	          0.13831546	          0.22987143	          0.31947966	          0.20361452	          0.22063455	          0.05889941	          0.08173343	          0.18612307	          0.05000058	          0.12021552	          0.24141656	          0.07642065	          0.06938418	          0.46959302	          0.15726053	          0.06366648	          0.05889963	          0.05889952	          0.05889953	          0.05889952	          0.08012528	          0.06938333	          0.06938305	          0.14340670	          0.09694938	          0.05889895	          0.46596218	          0.46116657	          0.12231839	          0.39575025	          0.38920991	          0.05889904	          0.07852511	          0.05000000	          0.07977892	          0.08138002	
          0.03203825	         -2.92831376	         -1.52435557	          5.99458440	          0.05298818	          0.90629101	         -0.00615981	        -14.62787818	          0.60574909	          5.76310863	         26.83672434	          3.23296194	         -2.83839031	        -20.95066023	        -14.88756504	         -2.80672643	          0.45878573	          4.44289670	         -2.89455874	         -8.22531287	         -0.01444482	         41.62387064	          1.74891146	         -2.97806590	          1.13448558	         -1.54087559	          2.20972602	        -14.03363228	         19.06469628	         -7.03112953	        -13.50556907	          8.68790920	         43.68243447	         19.38655179	         86.51662706	         86.51662706	          0.17843764	          0.05000007	          0.05000003	          0.27790405	          0.11682042	          0.05000022	          0.05000121	          0.05000016	          0.05000009	          0.05889966	          0.05890845	          0.19721850	          0.12492581	          0.05000096	          0.05000181	          0.07607698	          0.47517872	          0.05890066	          0.05000022	          0.05000068	          0.05000044	          0.05000048	          0.29625594	          0.65966877	          0.05000009	          0.05000023	          0.05000005	          0.33763508	          0.15738457	          0.15738466	          0.15738415	          0.20596985	          0.32807535	          0.11546605	          0.36314690	          0.25920375	          0.40434029	          0.05000003	          0.05000050	          0.25683443	          0.05000506	          0.05000022	          0.05122478	          0.43282320	          0.09659379	          0.05889952	          0.06890875	          0.38153454	          0.37591152	          0.41626297	          0.44507989	          0.25984218	          0.30792849	          0.19950940	          0.15876139	          0.21447259	          0.10395821	          0.06938277	          0.11741652	          0.19513884	          0.27120747	          0.17284931	          0.28619254	          0.05000017	          0.06938456	          0.20207326	          0.05000020	          0.28212137	          0.35679702	          0.06487378	          0.05890049	          0.39863917	          0.13349909	          0.09657598	          0.05000010	          0.05000002	          0.05000003	          0.05000002	          0.06801863	          0.05889975	          0.05889951	          0.22648522	          0.08796281	          0.05000015	          0.49963329	          0.39148590	          0.12698812	          0.64704235	          0.51593572	          0.05000001	          0.21840293	          0.07316622	          0.08173259	          0.06908379	
